<svg viewBox="0 0 93 357"
	xmlns="http://www.w3.org/2000/svg" xml:space="preserve" style="fill-rule:evenodd;clip-rule:evenodd;stroke-linejoin:round;stroke-miterlimit:2">
	<path class="pincel-color" d="M2041.3 36.494c-4.72-3.506-13.2 2.215-8.97 6.655.48.505-.2 1.741.12 2.478.35.784 1.1 1.43 1.76 2.033 26.66 24.114 57.47 38.665 94.08 38.293 10.85-.11 21.68-2.962 32.84-4.604 6.67-3.731 13.28-7.362 19.79-11.156.8-.465 1.29-1.757 1.5-2.753.06-.275-1.36-.934-2.16-1.296-4.62-2.091-17.5-21.759-15.83-24.606 4.47-7.623 5.76-14.156 14.66-16.69 3.96-1.126 2.84-2.821.7-4.974-10.65-10.712-24.09-13.887-38.53-13.396-9.79.334-19.14 2.894-28.1 7.444-10.32 5.237-20.9 10.34-31.92 13.7-13.01 3.965-26.6 6.001-39.94 8.872Z" style="fill:#ff007d;fill-rule:nonzero" transform="rotate(-90 1185.367 1184.827)"/>
	<path d="M0 23.165c13.257 4.301 25.883 10.519 39.918 12.508 10.968 1.555 21.789 2.045 32.524-1.362 5.759-1.826 11.556-3.534 17.308-5.378 2.912-.935 2.776-2.57 1.088-4.753-4.178-5.399-6.589-6.801-13.427-4.333-20.554 7.418-40.93 3.805-61.384.19-11.565-2.044-23.137-4.048-34.706-6.07l-.65 1.404C-12.896 17.997-6.595 21.025 0 23.165m104.508 12.527c.8-.465 1.285-1.757 1.497-2.753.058-.274-1.363-.934-2.161-1.296-4.619-2.091-8.43.793-12.072 2.579-9.797 4.806-20.246 6.616-30.879 7.384-16.048 1.159-31.669-.601-46.295-7.961-3.507-1.765-7.262-3.23-11.069-4.193-15.611-3.948-29.209-12.03-42.861-20.044-.784-.46-1.58-1.031-2.439-1.191-.755-.14-2.019-.032-2.312.431-.371.59-.204 1.741.122 2.478.346.785 1.094 1.43 1.76 2.033 26.656 24.114 57.462 38.665 94.075 38.294 10.85-.111 21.682-2.963 32.837-4.605 6.672-3.731 13.281-7.362 19.797-11.156M95.957.274c-5.994 4.671-6.155 11.803-.74 17.114 7.556 7.41 17.447 10.48 27.069 13.729 6.262 2.113 13.784 3.084 18.692 3.764 2.269.313 3.558-.389 2.538-4.004-1.245-4.411-1.976-9.149-3.374-13.446-2.841-8.734-2.731-16.754 3.689-24 .625-.704.921-1.941 1.37-2.929-.789-.239-1.597-.826-2.364-.661-6.131 1.316-14.872 1.687-23.02 2.601-4.796.538-9.527 1.697-15.567 2.812-2.084 1.239-5.445 2.803-8.293 5.02M-.303 12.239c11.624 2.439 23.451 3.924 35.166 5.957 14.223 2.468 28.007.481 41.329-4.556 3.088-1.167 6.246-3.885 7.914-6.732 4.468-7.622 9.666-14.027 18.572-16.56 3.956-1.126 2.839-2.822.697-4.975-10.648-10.712-24.088-13.886-38.53-13.396-9.794.334-19.136 2.894-28.098 7.444C26.429-15.342 15.84-10.238 4.819-6.878c-13.006 3.964-26.598 6-39.937 8.872l-.578 1.409c11.79 2.981 23.499 6.341 35.393 8.836M287.379 16.4c1.727-3.284 1.79-7.89.169-11.337-1.992-4.24-4.116-7.653-6.564-8.544-2.85-1.039-5.694-2.214-8.549-3.16-6.73-2.228-13.446-4.952-20.203-6.352-6.473-1.34-12.985-2.034-19.489-1.644-11.726.706-32.915 2.078-61.631 1.784-8.31-.085-16.528 1.277-23.478 9.842-4.991 6.153-6.274 12.192-3.552 19.838 1.865 5.242 3.964 10.36 6.372 15.137.809 1.606 2.839 2.829 4.399 2.809 23.923-.304 55.62-1.156 65.364-.732 10.303.448 20.626.322 30.942-.989 6.585-.836 13.171-4.213 19.755-6.58 2.967-1.068 5.931-2.371 8.891-3.724 1.661-.758 3.311-1.836 4.966-2.771l-.018-.458c.881-1.011 1.831-1.606 2.626-3.119M34.524 56.337C4.66 51.841-22.244 40.04-44.367 18.963A364.698 364.698 0 0 1-60.978 2.085c-1.231-1.337-1.807-3.762-1.667-5.613.055-.717 2.916-1.674 4.532-1.75 3.652-.173 7.328.089 10.99.256 20.476.935 40.02-3.177 58.94-10.815 13.562-5.475 27.038-11.19 40.772-16.199 9.702-3.54 19.815-2.777 29.828-.769 10.523 2.11 19.232 7.662 26.733 14.819 5.582 5.325 11.484 5.331 18.462 4.466 8.729-1.08 15.905-2.251 22.481-2.679 13.236-.86 26.434-.642 39.669-1.418 24.436-1.435 35.334-1.878 45.268-1.529 7.235.254 14.486.4 21.681 2.028 8.13 1.84 16.025 5.657 24.303 8.134 22.374 6.695 9.096 32.368 3.277 34.519-7.802 2.883-14.73 6.778-21.951 9.582-9.279 3.603-18.571 4.754-27.864 4.747-6.225-.005-12.448-.28-18.671-.491-12.349-.417-55.117 4.883-95.11-2.281-4.816-.862-8.61-.194-12.716 2.839-7.626 5.63-15.942 10.251-25.764 12.194-15.351 5.318-31.718 6.616-47.691 4.212" style="fill:#524632;fill-rule:nonzero" transform="rotate(-90 164.407 129.367)"/>
	<path d="M-183.194 19.924c.88-1.011 1.831-1.606 2.626-3.119 1.726-3.284 1.789-7.89.169-11.337-1.993-4.241-4.116-7.653-6.564-8.544-2.85-1.039-5.695-2.214-8.549-3.161-6.73-2.227-13.446-4.951-20.203-6.351-6.473-1.34-12.985-2.034-19.489-1.644-11.726.706-32.915 2.078-61.632 1.784-8.31-.085-16.527 1.277-23.477 9.842-4.991 6.153-6.274 12.192-3.552 19.838 1.865 5.242 3.964 10.36 6.372 15.137.809 1.606 2.839 2.829 4.399 2.809 23.923-.304 55.619-1.156 65.364-.732 10.303.448 20.626.322 30.942-.989 6.584-.836 13.171-4.213 19.754-6.58 2.968-1.068 5.932-2.371 8.892-3.724 1.661-.758 3.311-1.836 4.966-2.771l-.018-.458Z" style="fill:#4f80be;fill-rule:nonzero" transform="rotate(-90 -69.769 -104.404)"/>
	<path d="M0-35.564c-2.084 1.239-5.445 2.802-8.293 5.02-5.994 4.67-6.155 11.803-.74 17.113C-1.477-6.021 8.414-2.951 18.036.298c6.262 2.114 13.784 3.085 18.692 3.765 2.269.313 3.558-.389 2.538-4.005-1.245-4.41-1.976-9.148-3.374-13.445-2.841-8.734-2.731-16.754 3.689-24.001.625-.703.921-1.94 1.37-2.928-.789-.239-1.597-.826-2.364-.661-6.131 1.316-14.872 1.686-23.02 2.601C10.771-37.838 6.04-36.68 0-35.564" style="fill:#c9cacb;fill-rule:nonzero" transform="rotate(-90 127.692 61.832)"/>
	<path d="m-176.53 14.291-31.189 2.053-10.461.689c-21.505 1.415-60.235 9.741-129.012-5.786-2.86-.646-6.287-1.913-6.651-4.808 13.8-5.33 30.15-5.49 41.23-6.975 27.687-3.713 64.044-4.502 75.275-3.449 11.241 1.054 20.708 1.133 28.318.992 5.367-.1 10.721.669 16.047 2.223a150.814 150.814 0 0 1 12.683 4.335c1.33.522 4.549.022 5.535 3.486 1.275 4.473-.132 7.132-1.775 7.24" style="fill:#fff;fill-opacity:.23;fill-rule:nonzero" transform="rotate(-90 -66.564 -98.025)"/>
</svg>