<svg viewBox="0 0 216 106"
	xmlns="http://www.w3.org/2000/svg" xml:space="preserve" style="fill-rule:evenodd;clip-rule:evenodd;stroke-linejoin:round;stroke-miterlimit:2">
	<path class="pintura-color" d="M4297.35 212.361c11.89.457 23.31 3.246 34.83 5.29 2.4.426 4.78 1.135 7.2 1.274 1.17.068 2.59-.639 3.59-1.404 9-6.946 19.1-8.912 30.15-6.99 4.14.72 8.28 1.446 12.45 1.921 7.63.869 15.29 2.139 22.92 2.098 4.6-.025 8.96-2.647 12.63-5.82.98-.849 2.2-1.42 3.32-2.119.6 1.319 1.38 2.589 1.78 3.967 1.22 4.179 3.09 8.369 3.26 12.614.41 10.082.62 20.193-.56 30.294-2.02 17.361-4.87 34.681-3.64 52.275.03.525.04 1.053.03 1.579-.1 3.866-.48 4.343-4.36 3.404-5.57-1.349-11.04-3.13-16.58-4.592a18.312 18.312 0 0 0-5.15-.586c-6.64.197-13.28.737-19.91.76-4.71.017-9.47-.27-14.12-1.007-5.35-.849-10.59-2.281-14.93-5.962-1.99-1.68-4.29-3.061-6.63-4.212-1.29-.635-3.04-.946-4.43-.667-18.81 3.752-37.79 4.87-56.94 4.749-7.22-.046-11.51-4.102-15.76-8.849-3.15-3.517-6.33-7.009-9.62-10.4-.8-.826-1.99-1.552-3.11-1.741-4.81-.816-9.65-1.458-14.49-2.084-5.9-.762-11.84-1.263-17.71-2.232-3.43-.568-5.58-3.413-6.15-6.488-1.24-6.662-2.58-13.45.35-20.123 1.11-2.52 2.32-4.467 5.47-4.916 8.81-1.258 17.55-2.974 26.37-4.159 4.72-.636 8.62-2.086 11.64-6.045 3.91-5.146 8.17-10.045 12.4-14.938.83-.948 2.18-1.802 3.4-1.98 7.41-1.085 14.86-1.964 22.3-2.911" style="fill:#ffa000;fill-rule:nonzero" transform="translate(-4213.816 -205.688)"/>
	<path d="M0 8.928v.109c4.903 0 9.809.068 14.709-.045 1.336-.031 2.826-.342 3.925-1.033.654-.412 1.095-1.94.859-2.735-.183-.614-1.567-1.208-2.424-1.218-2.086-.023-4.173.365-6.266.468-6.991.344-13.984.649-20.977.936-1.573.064-3.171.133-4.722-.069-.911-.119-1.752-.767-2.625-1.178.741-.406 1.44-1.011 2.23-1.173 1.362-.281 2.78-.334 4.178-.398 9.093-.417 18.185-.85 27.282-1.183 2.164-.079 3.845-.322 3.772-3.08-.071-2.77-.626-3.226-3.727-3.42-8.483-.531-16.735.924-24.978 2.627-2.735.566-5.525.874-8.301 1.201-.318.038-.744-.542-1.034-.904-.045-.056.319-.605.58-.712.969-.396 1.952-.817 2.971-1.022C-9.07-5.005-3.597-6.135 1.909-7.08c4.468-.767 8.983-1.259 13.464-1.948.596-.091 1.639-.769 1.595-.929-.219-.783-.608-1.979-1.171-2.125-2.157-.56-4.478-1.308-6.606-1.021-7.955 1.076-15.872 2.461-23.776 3.878-4.548.816-7.178 4.714-6.837 9.493.098 1.375-.084 2.78-.229 4.161-.721 6.832 1.01 9.619 7.457 11.805.989.336 2.035.608 3.071.685 7.666.569 15.336 1.099 23.008 1.592 1.036.067 2.399.237 3.073-.307 1.391-1.123 3.214-2.591 3.413-4.108.32-2.436-2.234-1.574-3.562-1.627-8.214-.327-16.436-.467-24.653-.749-1.91-.066-3.822-.372-5.705-.721-.521-.096-.939-.744-1.405-1.139.567-.31 1.131-.883 1.702-.89C-10.169 8.899-5.085 8.928 0 8.928M72.693-3.643c.491-9.396-.969-18.687-3.177-27.84-1.404-5.824-4.468-7.605-10.453-6.946-.69.076-1.374.479-2.042.439-1.917-.114-2.439.428-1.82 2.406 1.562 4.994 3.031 10.024 4.306 15.097 2.218 8.825 3.705 17.851 2.794 26.902-1.08 10.743-3.098 21.392-4.638 32.091-.119.827.256 2.467.513 2.49 2.42.218 4.997.635 7.242-.006 1.097-.313 1.758-2.682 2.314-4.228.767-2.129 1.332-4.34 1.838-6.55 2.546-11.114 3.333-22.399 3.123-33.855M59.997.134c-1.117-6.139-2.165-13.941-4.054-21.535-1.207-4.853-3.678-9.388-5.538-14.085-.823-2.08-2.434-2.262-4.302-1.993-4.779.688-5.558 2.015-3.795 6.479.128.325.313.627.453.949 2.666 6.147 4.67 12.497 4.494 19.256-.233 8.921-.345 17.881-1.332 26.732-.688 6.167-.435 12.511-3.358 18.464-3.137 6.392-2.443 7.009 4.799 6.972l1.052-.007c5.222-.025 5.359.001 6.378-5.335 1.145-6.005 2.091-12.052 2.973-18.103.782-5.361 1.357-10.753 2.23-17.794M44.479-2.158l-.135-.029c0-3.331.131-6.669-.028-9.992-.338-7.151-2.744-13.676-6.554-19.669-1.858-2.922-2.033-2.882-4.383-.173-3.645 4.203-7.084 8.593-10.858 12.674-3.428 3.707-3.554 3.562-1.381 7.819.466.914.902 1.906 1.059 2.908 1.497 9.583 1.802 19.135-1.633 28.411-.716 1.936-.541 3.196.866 4.672 3.503 3.674 6.85 7.495 10.272 11.247.471.515.985 1 1.528 1.44 1.664 1.351 3.442 1.399 4.417-.57 1.696-3.423 3.865-6.911 4.358-10.571 1.259-9.331 1.703-18.771 2.472-28.167m144.604-18.258-.514-.068c0-2.272.315-4.598-.067-6.805-.735-4.265-1.798-8.479-2.862-12.679-.411-1.621-1.489-2.189-3.205-1.35-3.273 1.601-6.631 3.027-9.92 4.596-3.228 1.54-3.495 2.203-2.68 5.738.587 2.54 1.575 5.072 1.653 7.629.216 7.171.582 14.404-.088 21.52-.975 10.38-3.04 20.654-4.179 31.023-.659 5.998-.538 12.098-.445 18.147.014.901 1.68 2.263 2.81 2.57 3.693 1.002 7.487 1.644 11.253 2.366 1.961.376 2.349-.848 2.42-2.47.269-6.28 1.123-12.589.75-18.827-.391-6.539 1.34-12.759 1.698-19.171.603-10.77 2.198-21.482 3.376-32.219m-69.918-9.816-.397 1.323c-4.642-.687-9.318-1.198-13.916-2.1-7.204-1.413-14.347-3.126-21.531-4.636-3.082-.649-6.195-1.173-9.311-1.628-1.382-.202-2.446.211-2.076 2.036.651 3.227 1.115 6.496 1.864 9.699 2.95 12.624 2.246 25.469 1.645 38.18-.4 8.479-2.521 16.927-4.463 25.251-.593 2.539-.077 2.868 1.834 2.613 8.304-1.11 16.705-1.859 24.836-3.744 4.092-.947 7.342-1.156 10.616 1.441.956.758 1.891 1.59 2.961 2.148 4.159 2.169 8.158 5.087 12.599 6.187 11.857 2.937 24.014 1.472 36.07 1.241 2.477-.047 3.47-1.22 3.393-3.581-.096-2.962-.387-5.942-.177-8.885.362-5.054.986-10.093 1.615-15.123.453-3.632.819-7.307 1.699-10.845 2.442-9.813 2.015-19.79 1.879-29.727-.063-4.537-2.064-8.755-3.423-13.079-.709-2.255-1.073-3.009-3.345-3.315-11.604-1.558-23.145-3.695-34.787-4.827-6.129-.596-12.072 1.652-17.445 4.879-.3.18-.594.386-.841.63-1.074 1.06-1.403 2.126.328 2.782 1.298.491 2.687.737 4.022 1.134 2.123.63 4.235 1.296 6.351 1.946m-60.64-12.09c11.896.457 23.312 3.246 34.828 5.29 2.405.426 4.787 1.135 7.205 1.274 1.174.068 2.593-.639 3.587-1.404 9.002-6.946 19.106-8.912 30.153-6.99 4.138.72 8.282 1.446 12.452 1.921 7.63.869 15.283 2.139 22.921 2.098 4.596-.025 8.957-2.647 12.627-5.82.982-.849 2.204-1.42 3.316-2.119.605 1.319 1.38 2.589 1.782 3.967 1.219 4.179 3.094 8.369 3.264 12.614.406 10.082.614 20.193-.561 30.294-2.022 17.361-4.873 34.681-3.644 52.275.036.525.048 1.053.033 1.579-.104 3.866-.479 4.343-4.359 3.404-5.571-1.349-11.037-3.13-16.584-4.592a18.29 18.29 0 0 0-5.151-.586c-6.639.197-13.272.737-19.91.76-4.709.017-9.471-.27-14.118-1.007-5.352-.849-10.585-2.281-14.933-5.962-1.984-1.68-4.287-3.061-6.625-4.212-1.29-.635-3.038-.946-4.433-.667-18.804 3.752-37.791 4.87-56.933 4.749-7.221-.046-11.51-4.102-15.763-8.849-3.151-3.517-6.334-7.009-9.618-10.4-.8-.826-1.998-1.552-3.111-1.741-4.809-.816-9.65-1.458-14.49-2.084-5.901-.762-11.843-1.263-17.708-2.232-3.434-.568-5.585-3.413-6.156-6.488-1.237-6.662-2.577-13.45.351-20.123 1.107-2.52 2.325-4.467 5.471-4.916 8.807-1.258 17.55-2.974 26.365-4.159 4.728-.636 8.626-2.086 11.641-6.045 3.919-5.146 8.17-10.045 12.408-14.938.821-.948 2.177-1.802 3.391-1.98 7.418-1.085 14.865-1.964 22.302-2.911" style="fill:#524632;fill-opacity:.65;fill-rule:nonzero" transform="translate(25.006 48.995)"/>
	<path d="M0 38.358c.011.102.021.203.03.305 6.273 0 12.547.102 18.817-.036 4.118-.091 7.443-3.007 8.564-7.145 2.272-8.379.169-16.622-.718-24.921-.492-4.615-3.049-6.932-7.334-7.483A462.076 462.076 0 0 0 .646-2.927c-10.944-.954-21.919-1.584-32.843-2.72-7.748-.806-11.241 2.059-10.884 9.878.355 7.788.65 15.585 1.262 23.354.749 9.503 4.536 13.41 14.6 12.628C-18.152 39.508-9.073 38.97 0 38.358m-7.169-53.049c-2.116-.65-4.228-1.316-6.351-1.947-1.335-.397-2.724-.642-4.022-1.133-1.731-.656-1.402-1.722-.328-2.782a4.45 4.45 0 0 1 .841-.63c5.373-3.227 11.316-5.475 17.445-4.879 11.642 1.131 23.183 3.269 34.787 4.827 2.272.305 2.636 1.06 3.345 3.315 1.359 4.324 3.36 8.542 3.423 13.079.136 9.937.563 19.914-1.879 29.726-.88 3.538-1.246 7.214-1.699 10.846-.629 5.03-1.253 10.069-1.615 15.123-.21 2.942.081 5.922.177 8.885.077 2.361-.916 3.534-3.392 3.581-12.057.231-24.214 1.696-36.071-1.241-4.441-1.1-8.44-4.018-12.599-6.187-1.07-.558-2.005-1.39-2.961-2.148-3.274-2.597-6.524-2.388-10.616-1.441-8.131 1.885-16.532 2.634-24.836 3.743-1.911.256-2.427-.073-1.834-2.612 1.942-8.324 4.063-16.772 4.463-25.251.601-12.711 1.305-25.556-1.645-38.18-.749-3.203-1.213-6.472-1.864-9.699-.37-1.825.694-2.238 2.076-2.036 3.116.455 6.229.979 9.311 1.628 7.184 1.51 14.327 3.223 21.531 4.636 4.598.902 9.274 1.412 13.916 2.099l.397-1.322" style="fill:#fff;fill-rule:nonzero" transform="translate(151.34 33.454)"/>
	<path d="M0-8.097C-.77 1.299-1.214 10.74-2.473 20.07c-.493 3.66-2.662 7.148-4.357 10.571-.976 1.97-2.753 1.921-4.417.571a13.974 13.974 0 0 1-1.528-1.441c-3.422-3.751-6.77-7.573-10.273-11.247-1.406-1.475-1.582-2.735-.865-4.672 3.434-9.276 3.13-18.827 1.633-28.411-.157-1.002-.593-1.993-1.06-2.908-2.173-4.256-2.047-4.111 1.381-7.818 3.774-4.082 7.214-8.471 10.858-12.674 2.35-2.709 2.526-2.749 4.383.173 3.811 5.993 6.216 12.517 6.555 19.668.158 3.324.027 6.661.027 9.992L0-8.097" style="fill:#bdbebf;fill-rule:nonzero" transform="translate(69.486 54.935)"/>
	<path d="M0-3.394C-.873 3.647-1.448 9.039-2.23 14.4c-.882 6.051-1.828 12.098-2.973 18.103-1.019 5.336-1.156 5.31-6.378 5.335l-1.052.007c-7.242.037-7.936-.58-4.799-6.972 2.923-5.953 2.67-12.297 3.358-18.464.987-8.851 1.099-17.811 1.332-26.732.176-6.759-1.828-13.109-4.494-19.257-.14-.321-.326-.623-.453-.948-1.763-4.464-.984-5.791 3.794-6.479 1.869-.269 3.48-.087 4.303 1.993 1.86 4.697 4.331 9.232 5.538 14.085C-2.165-17.335-1.117-9.533 0-3.394" style="fill:#fff;fill-rule:nonzero" transform="translate(85.003 52.524)"/>
	<path d="m0 35.027.007.132c3.325 0 6.652.077 9.973-.019 4.183-.12 6.071-1.78 7.014-5.668 1.83-7.536.648-14.919-1.284-22.195-.392-1.475-1.891-3.056-3.294-3.767-2.125-1.078-4.581-1.842-6.953-2.033C-9.319.284-24.117-.714-38.911-1.766c-.871-.062-1.76-.122-2.621-.021-3.382.396-5.091 2.119-4.945 5.553.348 8.161.773 16.323 1.414 24.467.545 6.916 4.98 9.241 11.121 8.835C-22.633 36.32-11.314 35.7 0 35.027M-7.182 38.6c-9.073.613-18.152 1.15-27.218 1.855-10.065.782-13.852-3.125-14.601-12.628-.611-7.769-.906-15.566-1.262-23.354-.356-7.819 3.136-10.683 10.884-9.878 10.924 1.137 21.9 1.766 32.843 2.721A460.52 460.52 0 0 1 12.178-.68c4.284.551 6.842 2.869 7.334 7.483.886 8.299 2.989 16.542.717 24.921-1.121 4.138-4.446 7.054-8.564 7.145-6.269.138-12.544.036-18.816.036a31.49 31.49 0 0 0-.031-.305" style="fill:#524632;fill-opacity:.65;fill-rule:nonzero" transform="translate(158.522 33.213)"/>
	<path d="M0-2.922C1.085.51 2.3 4.139 5.077 6.429c2.777 2.29 7.639 2.414 9.477-.681.602-1.014.8-2.215.923-3.389.325-3.118.161-6.399-1.284-9.181-1.443-2.784-4.393-4.943-7.521-4.726-3.128.216-5.951 3.364-5.21 6.41" style="fill:#fff;fill-rule:nonzero" transform="translate(48.02 71.803)"/>
</svg>