<?xml version="1.0" encoding="UTF-8" standalone="no"?>
<!DOCTYPE svg PUBLIC "-//W3C//DTD SVG 1.1//EN" "http://www.w3.org/Graphics/SVG/1.1/DTD/svg11.dtd">
<svg width="100%" height="100%" viewBox="0 0 30 30" version="1.1" xmlns="http://www.w3.org/2000/svg" xmlns:xlink="http://www.w3.org/1999/xlink" xml:space="preserve" xmlns:serif="http://www.serif.com/" style="fill-rule:evenodd;clip-rule:evenodd;stroke-linejoin:round;stroke-miterlimit:2;">
    <g transform="matrix(1,0,0,1,-1.27423,0)">
        <path d="M16.274,11.987C16.822,11.484 17.381,10.993 17.951,10.515C19.542,9.18 21.33,7.68 22.428,6.758C23.016,6.264 23.885,6.302 24.428,6.846C24.428,6.846 24.429,6.846 24.429,6.846C24.972,7.389 25.01,8.258 24.516,8.846C23.595,9.944 22.094,11.733 20.76,13.323C20.281,13.893 19.79,14.452 19.287,15C19.79,15.548 20.281,16.107 20.76,16.677C22.094,18.267 23.595,20.056 24.516,21.154C25.01,21.742 24.972,22.611 24.429,23.154C24.429,23.154 24.428,23.154 24.428,23.154C23.885,23.698 23.016,23.736 22.428,23.242C21.33,22.32 19.542,20.82 17.951,19.485C17.381,19.007 16.822,18.516 16.274,18.013C15.726,18.516 15.167,19.007 14.597,19.485C13.007,20.82 11.219,22.32 10.121,23.242C9.532,23.736 8.663,23.698 8.12,23.154C8.12,23.154 8.12,23.154 8.12,23.154C7.576,22.611 7.539,21.742 8.032,21.154C8.954,20.056 10.454,18.267 11.789,16.677C12.267,16.107 12.758,15.548 13.261,15C12.758,14.452 12.267,13.893 11.789,13.323C10.454,11.733 8.954,9.944 8.032,8.846C7.539,8.258 7.576,7.389 8.12,6.846C8.12,6.846 8.12,6.846 8.12,6.846C8.663,6.302 9.532,6.264 10.121,6.758C11.219,7.68 13.007,9.18 14.597,10.515C15.167,10.993 15.726,11.484 16.274,11.987Z" style="fill:white;"/>
    </g>
</svg>
