<svg clip-rule="evenodd" fill-rule="evenodd" stroke-linejoin="round" stroke-miterlimit="2" viewBox="0 0 30 30" xmlns="http://www.w3.org/2000/svg"><path d="m11.169 27.953c-.155.028-.314.042-.474.042-.716 0-1.403-.284-1.909-.791-1.665-1.664-4.934-4.934-6.598-6.598-.507-.506-.791-1.193-.791-1.909 0-.717.284-1.404.791-1.91 3.066-3.067 12.14-12.141 15.207-15.207.506-.507 1.193-.791 1.91-.791.716 0 1.403.284 1.909.791 1.665 1.664 4.934 4.933 6.598 6.598.507.506.791 1.193.791 1.909 0 .717-.284 1.404-.791 1.91l-13.456 13.456h12.956c.689 0 1.25.561 1.25 1.25 0 .69-.561 1.25-1.25 1.25zm-.351-2.5c.007-.005.013-.01.019-.016l15.208-15.208c.037-.037.058-.088.058-.142 0-.053-.021-.104-.058-.142-1.665-1.664-4.934-4.933-6.599-6.598-.037-.037-.088-.058-.141-.058-.054 0-.105.021-.142.058-3.067 3.067-12.141 12.141-15.208 15.208-.037.037-.058.088-.058.142 0 .053.021.104.058.141l6.599 6.599c.006.006.012.011.019.016z"/></svg>