<?xml version="1.0" encoding="UTF-8" standalone="no"?>
<!DOCTYPE svg PUBLIC "-//W3C//DTD SVG 1.1//EN" "http://www.w3.org/Graphics/SVG/1.1/DTD/svg11.dtd">
<svg width="100%" height="100%" viewBox="0 0 30 30" version="1.1" xmlns="http://www.w3.org/2000/svg" xmlns:xlink="http://www.w3.org/1999/xlink" xml:space="preserve" xmlns:serif="http://www.serif.com/" style="fill-rule:evenodd;clip-rule:evenodd;stroke-linejoin:round;stroke-miterlimit:2;">
    <path d="M4.318,3.822L25.682,3.822C26.014,3.822 26.332,3.953 26.566,4.188C26.801,4.422 26.932,4.74 26.932,5.072C26.932,5.403 26.801,5.721 26.566,5.955C26.332,6.19 26.014,6.322 25.682,6.322L24.227,6.322L22.353,24.928C22.353,25.619 21.793,26.178 21.103,26.178L8.897,26.178C8.207,26.178 7.647,25.619 7.647,24.928L5.773,6.322L4.318,6.322C3.986,6.322 3.668,6.19 3.434,5.955C3.199,5.721 3.068,5.403 3.068,5.072C3.068,4.74 3.199,4.422 3.434,4.188C3.668,3.953 3.986,3.822 4.318,3.822ZM8.147,6.322L10.147,23.678L19.853,23.678L21.853,6.322L8.147,6.322Z" style="fill:white;"/>
</svg>
