<svg clip-rule="evenodd" fill-rule="evenodd" stroke-linejoin="round" stroke-miterlimit="2" viewBox="0 0 30 30" xmlns="http://www.w3.org/2000/svg"><g fill="#fff"><path d="m17.363 13.303c.123.044.262.023.37-.054.108-.078.173-.203.173-.334.002-1.636.002-6.052.002-6.052 0-.515-.418-.934-.934-.934h-3.948c-.516 0-.934.419-.934.934v6.08c0 .129.062.248.167.321.104.073.239.09.361.046.739-.255 1.541-.394 2.38-.394.833 0 1.629.137 2.363.387z" transform="matrix(.97305 .999473 -.97305 .999473 15.3733 -15.3215)"/><path d="m16.804 13.193c-3.485-3.579-8.84-3.782-11.944-.594-.945.97-1.563 2.68-1.861 4.643-.601 3.955-.054 8.95-.054 8.95.072.65.571 1.163 1.203 1.236 0 0 4.863.562 8.715-.055 1.91-.306 3.575-.941 4.519-1.911 3.104-3.189 2.906-8.69-.578-12.269z" transform="matrix(.852813 0 0 .852813 2.28901 2.1312)"/></g></svg>