<svg clip-rule="evenodd" fill-rule="evenodd" stroke-linejoin="round" stroke-miterlimit="2" viewBox="0 0 30 30" xmlns="http://www.w3.org/2000/svg"><g fill="#fff" fill-rule="nonzero"><path d="m.482.03c-.044 0-.076-.005-.093-.016s-.03-.026-.038-.044c-.039.014-.078.021-.117.021-.074 0-.133-.022-.178-.066-.031-.03-.046-.068-.046-.114 0-.048.015-.086.045-.114.054-.049.14-.073.259-.073-.003-.025-.01-.047-.022-.067-.012-.019-.024-.029-.036-.029s-.021.002-.029.007c-.007.004-.014.011-.02.021-.012.019-.025.031-.04.035-.014.005-.025.007-.033.007-.013 0-.025-.003-.037-.01-.02-.01-.032-.021-.036-.034-.003-.013-.005-.023-.005-.03 0-.013.004-.026.011-.039.022-.035.049-.063.083-.082.035-.019.073-.029.116-.029.052 0 .095.009.13.028.035.018.064.043.086.075s.039.067.05.107c.012.04.02.081.024.123s.007.083.007.122c0 .048-.001.089-.003.126-.001.027-.009.046-.024.058-.015.011-.033.017-.054.017zm-.238-.189c.035 0 .065-.006.089-.02l-.003-.051c-.018-.008-.041-.012-.069-.012-.019 0-.039.004-.059.012-.02.007-.03.02-.03.036 0 .013.007.022.022.027.014.006.03.008.05.008z" transform="matrix(17.14452 0 0 17.14452 1.2830902528 20.952072289)"/><path d="m.206.03c-.064 0-.108-.019-.134-.059-.021-.032-.031-.124-.031-.278 0-.097.006-.212.017-.344.002-.026.01-.045.025-.056.014-.012.032-.018.052-.018.038 0 .069.006.092.017.023.012.039.026.047.042.009.017.014.034.014.052l-.009.153c.019-.004.038-.005.057-.005.028 0 .056.003.084.01.046.012.086.035.119.067.037.037.055.086.055.148 0 .051-.014.093-.041.127-.032.039-.07.066-.116.082-.046.015-.091.023-.134.023-.01 0-.019 0-.028-.001-.016.027-.039.04-.069.04zm.097-.202c.044 0 .078-.007.103-.022.018-.011.027-.029.027-.052v-.004c-.005-.035-.035-.053-.089-.053-.027 0-.051.003-.071.01 0 .046.001.086.002.12.009.001.018.001.028.001z" transform="matrix(17.14452 0 0 17.14452 9.83009066 20.952072289)"/><path d="m.352.02c-.06 0-.115-.013-.166-.038s-.092-.062-.122-.11c-.031-.049-.047-.108-.047-.178 0-.055.013-.102.039-.141s.061-.069.104-.09c.044-.021.092-.032.144-.032.072 0 .145.026.219.077.019.013.03.026.033.04.002.013.004.022.004.027 0 .015-.005.03-.015.045-.013.019-.026.029-.04.032-.013.002-.022.004-.027.004-.016 0-.031-.005-.045-.014-.017-.011-.031-.017-.043-.018s-.02-.001-.024-.001c-.041 0-.074.015-.097.045-.013.016-.02.036-.02.061 0 .027.006.05.018.069s.027.033.046.042.038.014.058.014c.027 0 .054-.007.079-.021.013-.006.026-.01.039-.01.007 0 .015.001.023.004.021.006.037.019.048.039.006.012.01.025.01.038 0 .008-.001.015-.004.023-.005.021-.018.036-.038.047-.056.03-.115.046-.176.046z" transform="matrix(17.14452 0 0 17.14452 18.780101584 20.952072289)"/></g></svg>